<svg xmlns="http://www.w3.org/2000/svg" viewBox="0 0 224.67 200.33"><defs><style>.cls-1{fill:#f0dfed;stroke:#dd3d96;}.cls-1,.cls-2,.cls-3,.cls-4,.cls-5,.cls-6,.cls-7{stroke-miterlimit:10;}.cls-2,.cls-8{fill:#231f20;}.cls-2,.cls-3,.cls-4{stroke:#ed258b;}.cls-3{fill:none;}.cls-4{fill:#5c5d60;}.cls-5{fill:#ecd5a7;}.cls-5,.cls-6{stroke:#a56faf;}.cls-6{fill:#ddc0dc;}.cls-7{fill:#74cfeb;stroke:#50a7dd;}.cls-8{font-size:14px;font-family:Monaco;}</style></defs><g id="Layer_2" data-name="Layer 2"><g id="labels"><rect class="cls-1" x="0.5" y="0.5" width="223.67" height="199.33" rx="14.72"/><path class="cls-2" d="M75,63c-8.93,1.17-28.74.35-36.43-23.77A13.27,13.27,0,0,1,38.21,32c1.43-5.72,5.58-14.08,15-8.87a12.53,12.53,0,0,1,4.36,4.08c.57.87,1.26,1.93,1.93,3-2,4.22.07,9.6,4.78,12.28,4.21,2.4,9.19,1.87,12.08-1h.13c2.27.08,8.64,2.61,9.41,7.49A10.65,10.65,0,0,1,86,50.38,12.55,12.55,0,0,1,75,63Z"/><path class="cls-3" d="M76.34,41.5c-2.89,2.9-7.87,3.43-12.08,1-4.71-2.68-6.75-8.06-4.78-12.28.51.81,1,1.63,1.45,2.39C62,34.49,65.65,41.1,76.34,41.5Z"/><path class="cls-4" d="M76.34,41.5c-2.89,2.9-7.87,3.43-12.08,1-4.71-2.68-6.75-8.06-4.78-12.28.51.81,1,1.63,1.45,2.39C62,34.49,65.65,41.1,76.34,41.5Z"/><path class="cls-2" d="M61,122.71c-8.93,1.17-28.74.34-36.42-23.77a13.27,13.27,0,0,1-.38-7.25c1.44-5.72,5.58-14.09,15-8.88a12.44,12.44,0,0,1,4.36,4.08c.58.88,1.26,1.94,1.94,3-2,4.22.06,9.6,4.77,12.28,4.22,2.4,9.2,1.86,12.08-1h.14c2.27.07,8.63,2.61,9.4,7.49a11.59,11.59,0,0,1,.12,1.39A12.57,12.57,0,0,1,61,122.71Z"/><path class="cls-3" d="M62.33,101.16c-2.88,2.9-7.86,3.44-12.08,1-4.71-2.68-6.74-8.06-4.77-12.28.5.8,1,1.63,1.44,2.39C48,94.16,51.65,100.76,62.33,101.16Z"/><path class="cls-4" d="M62.33,101.16c-2.88,2.9-7.86,3.44-12.08,1-4.71-2.68-6.74-8.06-4.77-12.28.5.8,1,1.63,1.44,2.39C48,94.16,51.65,100.76,62.33,101.16Z"/><path class="cls-5" d="M175.52,173.64c-8.93,1.17-28.74.34-36.42-23.77a13.3,13.3,0,0,1-.38-7.26c1.44-5.72,5.58-14.08,15-8.87a12.44,12.44,0,0,1,4.36,4.08c.58.88,1.26,1.94,1.94,3-2,4.23.06,9.61,4.77,12.29,4.22,2.4,9.2,1.86,12.08-1H177c2.27.07,8.63,2.61,9.4,7.49a9.46,9.46,0,0,1,.12,1.39A12.56,12.56,0,0,1,175.52,173.64Z"/><path class="cls-3" d="M176.85,152.09c-2.88,2.9-7.86,3.44-12.08,1-4.71-2.68-6.74-8.06-4.77-12.29.5.81,1,1.64,1.44,2.4C162.51,145.09,166.17,151.69,176.85,152.09Z"/><path class="cls-6" d="M176.85,152.09c-2.88,2.9-7.86,3.44-12.08,1-4.71-2.68-6.74-8.06-4.77-12.29.5.81,1,1.64,1.44,2.4C162.51,145.09,166.17,151.69,176.85,152.09Z"/><rect class="cls-7" x="93.36" y="70.32" width="110.76" height="48.1" rx="9.88"/><text class="cls-8" transform="translate(127.73 98.41)">tacos</text></g></g></svg>