<svg xmlns="http://www.w3.org/2000/svg" viewBox="0 0 224.67 200.33"><defs><style>.cls-1{fill:#f0dfed;stroke:#dd3d96;}.cls-1,.cls-2,.cls-4{stroke-miterlimit:10;}.cls-2{fill:#74cfeb;stroke:#50a7dd;}.cls-3{fill:#eacfb8;stroke-linejoin:round;}.cls-3,.cls-4{stroke:#478682;stroke-linecap:round;}.cls-4{fill:none;}.cls-5{font-size:14px;fill:#231f20;font-family:Monaco;}</style></defs><g id="Layer_2" data-name="Layer 2"><g id="refried_beans" data-name="refried beans"><rect class="cls-1" x="0.5" y="0.5" width="223.67" height="199.33" rx="14.72"/><rect class="cls-2" x="56.96" y="44.02" width="110.76" height="48.1" rx="9.88"/><path class="cls-3" d="M146.45,127.5s-7.39,7.79-9.5,10a42.31,42.31,0,0,0-4,4.7,14.67,14.67,0,0,0-2.42,6.14c-1.06,8-1.45,21.78,6.87,25a3.54,3.54,0,0,0,.74.23c2.3.43,4,1.13,8.3-1.35,3.8.48,10.49,4.28,17.36-5.7,2.13-3.33,9.73-21.15-6.19-31.84-2.88-2.12-6.62-4.43-9-5.83C147.33,128,146.45,127.5,146.45,127.5Z"/><path class="cls-4" d="M157.33,142.11s8.76,12.85,0,20.84"/><path class="cls-4" d="M146.86,129.52s-8.24,36.13-1.53,41"/><path class="cls-3" d="M87.27,112.89s-7.39,7.79-9.5,10a41.42,41.42,0,0,0-4,4.7,14.53,14.53,0,0,0-2.42,6.14c-1.06,8-1.45,21.78,6.87,25a3.22,3.22,0,0,0,.74.23c2.3.43,4,1.13,8.3-1.35,3.8.48,10.49,4.28,17.36-5.7,2.12-3.33,9.73-21.15-6.19-31.84-2.88-2.12-6.62-4.43-9-5.83C88.15,113.39,87.27,112.89,87.27,112.89Z"/><path class="cls-4" d="M98.15,127.5s8.76,12.85,0,20.84"/><path class="cls-4" d="M87.68,114.91s-8.24,36.13-1.53,41"/><text class="cls-5" transform="translate(91.33 71.11)">tacos</text></g></g></svg>