<svg xmlns="http://www.w3.org/2000/svg" viewBox="0 0 224.67 200.33"><defs><style>.cls-1{fill:#f0dfed;stroke:#dd3d96;}.cls-1,.cls-2,.cls-5{stroke-miterlimit:10;}.cls-2{fill:#74cfeb;stroke:#50a7dd;}.cls-3{font-size:14px;fill:#231f20;font-family:Monaco;}.cls-4{fill:#eacfb8;stroke-linejoin:round;}.cls-4,.cls-5{stroke:#478682;stroke-linecap:round;}.cls-5{fill:none;}</style></defs><g id="Layer_2" data-name="Layer 2"><g id="chickpeas"><rect class="cls-1" x="0.5" y="0.5" width="223.67" height="199.33" rx="14.72"/><rect class="cls-2" x="87.88" y="44.02" width="110.76" height="48.1" rx="9.88"/><text class="cls-3" transform="translate(118.89 64.02)">lentil<tspan x="4.2" y="16.8">curry</tspan></text><path class="cls-4" d="M111.16,122.2s-7.39,7.79-9.51,10a43.58,43.58,0,0,0-4,4.7A14.65,14.65,0,0,0,95.25,143c-1.06,8-1.45,21.78,6.87,25a3.22,3.22,0,0,0,.74.23c2.3.43,4,1.13,8.3-1.35,3.8.48,10.49,4.28,17.36-5.7,2.12-3.33,9.73-21.15-6.19-31.84-2.88-2.12-6.62-4.43-9-5.83C112,122.7,111.16,122.2,111.16,122.2Z"/><path class="cls-5" d="M122,136.81s8.76,12.85,0,20.84"/><path class="cls-5" d="M111.57,124.22s-8.25,36.13-1.53,41"/><path class="cls-4" d="M51.17,95.73s-7.4,7.79-9.51,10a42.34,42.34,0,0,0-4,4.69,14.51,14.51,0,0,0-2.41,6.15c-1.06,8-1.46,21.78,6.87,25a3.34,3.34,0,0,0,.73.23c2.31.43,4,1.13,8.31-1.35,3.8.48,10.48,4.28,17.36-5.7,2.12-3.33,9.72-21.15-6.2-31.84-2.87-2.12-6.61-4.43-8.95-5.83C52,96.23,51.17,95.73,51.17,95.73Z"/><path class="cls-5" d="M62,110.34s8.76,12.84,0,20.83"/><path class="cls-5" d="M51.57,97.75s-8.24,36.13-1.52,41"/></g></g></svg>