<svg xmlns="http://www.w3.org/2000/svg" viewBox="0 0 224.67 200.33"><defs><style>.cls-1{fill:#f0dfed;stroke:#dd3d96;}.cls-1,.cls-2,.cls-3,.cls-5,.cls-6,.cls-8{stroke-miterlimit:10;}.cls-2,.cls-5{fill:none;}.cls-2,.cls-3,.cls-8{stroke:#ed258b;}.cls-3{fill:#5c5d60;}.cls-4{fill:#eacfb8;stroke-linejoin:round;}.cls-4,.cls-5{stroke:#478682;stroke-linecap:round;}.cls-6{fill:#74cfeb;stroke:#50a7dd;}.cls-7{font-size:14px;font-family:Monaco;}.cls-7,.cls-8{fill:#231f20;}</style></defs><g id="Layer_2" data-name="Layer 2"><g id="black_beans" data-name="black beans"><rect class="cls-1" x="0.5" y="0.5" width="223.67" height="199.33" rx="14.72"/><path class="cls-2" d="M77.8,64c-2.88,2.9-7.86,3.43-12.08,1C61,62.36,59,57,61,52.76c.5.81,1,1.63,1.44,2.39C63.46,57,67.11,63.61,77.8,64Z"/><path class="cls-3" d="M77.8,64c-2.88,2.9-7.86,3.43-12.08,1C61,62.36,59,57,61,52.76c.5.81,1,1.63,1.44,2.39C63.46,57,67.11,63.61,77.8,64Z"/><path class="cls-4" d="M160.49,119.48s-7.4,7.79-9.51,10a43.41,43.41,0,0,0-4,4.7,14.52,14.52,0,0,0-2.41,6.14c-1.06,8-1.46,21.79,6.87,25a3.34,3.34,0,0,0,.73.23c2.31.43,4,1.13,8.31-1.34,3.8.47,10.49,4.27,17.36-5.71,2.12-3.32,9.73-21.15-6.2-31.84-2.87-2.12-6.61-4.43-9-5.83C161.37,120,160.49,119.48,160.49,119.48Z"/><path class="cls-5" d="M171.36,134.09s8.76,12.85,0,20.84"/><path class="cls-5" d="M160.89,121.5s-8.24,36.13-1.52,41"/><rect class="cls-6" x="101.35" y="42.51" width="110.76" height="48.1" rx="9.88"/><rect class="cls-6" x="19.87" y="118.95" width="110.76" height="48.1" rx="9.88"/><text class="cls-7" transform="translate(119.77 62.51)">breakfast <tspan x="8.4" y="16.8">burrito</tspan></text><text class="cls-7" transform="translate(41.39 138.89)">zuchinni <tspan x="12.6" y="16.8">pasta</tspan></text><path class="cls-8" d="M76.47,85.55c-8.93,1.17-28.74.35-36.42-23.77a13.26,13.26,0,0,1-.38-7.25c1.43-5.72,5.58-14.08,15-8.87A12.44,12.44,0,0,1,59,49.74c.57.87,1.26,1.93,1.94,3C59,57,61,62.36,65.72,65c4.22,2.4,9.2,1.87,12.08-1h.14c2.27.08,8.63,2.62,9.4,7.49a11.59,11.59,0,0,1,.12,1.39A12.56,12.56,0,0,1,76.47,85.55Z"/></g></g></svg>