<svg xmlns="http://www.w3.org/2000/svg" viewBox="0 0 224.67 200.33"><defs><style>.cls-1{fill:#f0dfed;stroke:#dd3d96;}.cls-1,.cls-3,.cls-4{stroke-miterlimit:10;}.cls-2{fill:#eacfb8;stroke-linejoin:round;}.cls-2,.cls-3{stroke:#478682;stroke-linecap:round;}.cls-3{fill:none;}.cls-4{fill:#74cfeb;stroke:#50a7dd;}.cls-5{font-size:14px;fill:#231f20;font-family:Monaco;}</style></defs><g id="Layer_2" data-name="Layer 2"><g id="refried_beans" data-name="refried beans"><rect class="cls-1" x="0.5" y="0.5" width="223.67" height="199.33" rx="14.72"/><path class="cls-2" d="M55.07,124.7s-7.4,7.79-9.51,10a43.41,43.41,0,0,0-4,4.7,14.52,14.52,0,0,0-2.41,6.14c-1.06,8-1.46,21.79,6.87,25a3.34,3.34,0,0,0,.73.23c2.31.43,4,1.13,8.31-1.34,3.8.47,10.48,4.27,17.36-5.71,2.12-3.32,9.72-21.15-6.2-31.84-2.87-2.12-6.61-4.43-9-5.83C55.94,125.2,55.07,124.7,55.07,124.7Z"/><path class="cls-3" d="M65.94,139.31s8.76,12.85,0,20.84"/><path class="cls-3" d="M55.47,126.72s-8.24,36.13-1.52,41"/><rect class="cls-4" x="95.81" y="117.96" width="110.76" height="48.1" rx="9.88"/><text class="cls-5" transform="translate(130.18 145.22)">salad</text></g></g></svg>