<svg xmlns="http://www.w3.org/2000/svg" viewBox="0 0 224.67 200.33"><defs><style>.cls-1{fill:#f0dfed;stroke:#dd3d96;}.cls-1,.cls-10,.cls-11,.cls-12,.cls-2,.cls-3,.cls-4,.cls-5,.cls-7,.cls-8{stroke-miterlimit:10;}.cls-2{fill:#74cfeb;stroke:#50a7dd;}.cls-3,.cls-6{fill:#231f20;}.cls-3,.cls-4,.cls-5{stroke:#ed258b;}.cls-10,.cls-4{fill:none;}.cls-5{fill:#5c5d60;}.cls-6{font-size:14px;font-family:Monaco;}.cls-11,.cls-7{fill:#ecd5a7;}.cls-10,.cls-11,.cls-12,.cls-7,.cls-8{stroke:#a56faf;}.cls-12,.cls-8{fill:#ddc0dc;}.cls-9{fill:#d3bf97;}.cls-10{stroke-linecap:round;}.cls-10,.cls-11{stroke-width:0.5px;}.cls-12{stroke-width:0.25px;}</style></defs><g id="Layer_2" data-name="Layer 2"><g id="refried_beans" data-name="refried beans"><rect class="cls-1" x="0.5" y="0.5" width="223.67" height="199.33" rx="14.72"/><rect class="cls-2" x="93.36" y="70.32" width="110.76" height="48.1" rx="9.88"/><path class="cls-3" d="M75,63c-8.93,1.17-28.74.35-36.43-23.77A13.27,13.27,0,0,1,38.21,32c1.43-5.72,5.58-14.08,15-8.87a12.53,12.53,0,0,1,4.36,4.08c.57.87,1.26,1.93,1.93,3-2,4.22.07,9.6,4.78,12.28,4.21,2.4,9.19,1.87,12.08-1h.13c2.27.08,8.64,2.61,9.41,7.49A10.65,10.65,0,0,1,86,50.38,12.55,12.55,0,0,1,75,63Z"/><path class="cls-4" d="M76.34,41.5c-2.89,2.9-7.87,3.43-12.08,1-4.71-2.68-6.75-8.06-4.78-12.28.51.81,1,1.63,1.45,2.39C62,34.49,65.65,41.1,76.34,41.5Z"/><path class="cls-5" d="M76.34,41.5c-2.89,2.9-7.87,3.43-12.08,1-4.71-2.68-6.75-8.06-4.78-12.28.51.81,1,1.63,1.45,2.39C62,34.49,65.65,41.1,76.34,41.5Z"/><path class="cls-3" d="M61,122.71c-8.93,1.17-28.74.34-36.42-23.77a13.27,13.27,0,0,1-.38-7.25c1.44-5.72,5.58-14.09,15-8.88a12.44,12.44,0,0,1,4.36,4.08c.58.88,1.26,1.94,1.94,3-2,4.22.06,9.6,4.77,12.28,4.22,2.4,9.2,1.86,12.08-1h.14c2.27.07,8.63,2.61,9.4,7.49a11.59,11.59,0,0,1,.12,1.39A12.57,12.57,0,0,1,61,122.71Z"/><path class="cls-4" d="M62.33,101.16c-2.88,2.9-7.86,3.44-12.08,1-4.71-2.68-6.74-8.06-4.77-12.28.5.8,1,1.63,1.44,2.39C48,94.16,51.65,100.76,62.33,101.16Z"/><path class="cls-5" d="M62.33,101.16c-2.88,2.9-7.86,3.44-12.08,1-4.71-2.68-6.74-8.06-4.77-12.28.5.8,1,1.63,1.44,2.39C48,94.16,51.65,100.76,62.33,101.16Z"/><text class="cls-6" transform="translate(128.57 98.31)">tacos</text><path class="cls-7" d="M108.87,178.92c-8.93,1.17-28.74.35-36.43-23.77a13.35,13.35,0,0,1-.37-7.25c1.43-5.72,5.58-14.08,15-8.87a12.53,12.53,0,0,1,4.36,4.08c.57.87,1.26,1.93,1.93,3-2,4.22.07,9.6,4.78,12.29,4.21,2.4,9.19,1.86,12.08-1h.13c2.27.07,8.64,2.61,9.41,7.48a10.71,10.71,0,0,1,.11,1.4A12.55,12.55,0,0,1,108.87,178.92Z"/><path class="cls-4" d="M110.2,157.38c-2.89,2.9-7.87,3.44-12.08,1-4.71-2.69-6.75-8.07-4.78-12.29.51.81,1,1.63,1.45,2.4C95.86,150.37,99.51,157,110.2,157.38Z"/><path class="cls-8" d="M110.2,157.38c-2.89,2.9-7.87,3.44-12.08,1-4.71-2.69-6.75-8.07-4.78-12.29.51.81,1,1.63,1.45,2.4C95.86,150.37,99.51,157,110.2,157.38Z"/><path class="cls-9" d="M188.57,169.91c-7.13,4.11-25,12.12-46.43,7.61a9,9,0,0,1-4.74-2.17c-2.22-2.43-3.66-6.84,7.76-9.1a27.53,27.53,0,0,1,6.31-.52l3.54.16c.83,2.18,5.89,3.05,11.66,1.94,5.16-1,9.2-3.24,10-5.38l.13,0c2-.93,9.17-2.77,12.81-1.53a8,8,0,0,1,.95.4C194.54,163.25,193.64,167,188.57,169.91Z"/><path class="cls-10" d="M179.07,166.15c2.08-1.91,3-2.07,3.48-1.81,1,.57-.09,3.32,1.2,4.47,1,.87,2.88.36,4.43-.26"/><path class="cls-11" d="M167.37,150.16c-3.68,4.51-13.38,12.91-27.69,5a8.58,8.58,0,0,1-3.4-3.25c-1.86-3.32-3.62-9.1,3.12-10.81a8.13,8.13,0,0,1,3.86,0c.66.16,1.45.35,2.25.57,1,2.86,4.3,4.48,7.7,3.66a6.52,6.52,0,0,0,5.23-5.85l.07-.05c1.1-1,5.22-2.61,7.75-.65a7,7,0,0,1,.67.6A8.11,8.11,0,0,1,167.37,150.16Z"/><path class="cls-12" d="M158.39,139.16a6.5,6.5,0,0,1-5.22,5.84c-3.41.83-6.76-.8-7.7-3.66.59.16,1.19.32,1.74.49C148.53,142.22,153.18,143.71,158.39,139.16Z"/><path class="cls-11" d="M188.37,161.48c-4.54,3.65-15.76,9.87-28.13-.86a8.64,8.64,0,0,1-2.65-3.87c-1.13-3.64-1.66-9.65,5.28-9.94a8.12,8.12,0,0,1,3.79.78c.61.29,1.34.64,2.08,1,.34,3,3.28,5.27,6.78,5.17a6.51,6.51,0,0,0,6.32-4.64l.08,0c1.28-.73,5.65-1.47,7.72,1a6.4,6.4,0,0,1,.53.73A8.12,8.12,0,0,1,188.37,161.48Z"/><path class="cls-12" d="M181.85,148.86a6.51,6.51,0,0,1-6.32,4.64c-3.5.1-6.44-2.18-6.77-5.17.54.27,1.1.56,1.6.83C171.57,149.82,175.82,152.24,181.85,148.86Z"/><path class="cls-10" d="M171.58,170c2.09-1.92,3-2.07,3.48-1.82,1,.58-.09,3.33,1.2,4.48,1,.87,2.89.36,4.44-.26"/><path class="cls-10" d="M137.89,172.85c2.09-1.92,3-2.07,3.48-1.82,1,.58-.09,3.33,1.2,4.48,1,.87,2.89.36,4.44-.26"/><path class="cls-10" d="M145.73,173.16c2.09-1.92,3-2.07,3.48-1.82,1,.58-.09,3.33,1.2,4.48,1,.87,2.89.36,4.44-.26"/><path class="cls-10" d="M155.19,173.87c2.09-1.92,3-2.07,3.49-1.82,1,.58-.09,3.33,1.19,4.48,1,.87,2.89.36,4.44-.26"/><path class="cls-10" d="M163.05,171.38c2.08-1.92,3-2.07,3.48-1.82,1,.58-.09,3.33,1.2,4.48,1,.87,2.88.36,4.43-.26"/><path class="cls-11" d="M169.58,168.66c-4.54,3.66-15.75,9.88-28.12-.85a8.48,8.48,0,0,1-2.65-3.87c-1.14-3.64-1.67-9.65,5.28-9.94a8.1,8.1,0,0,1,3.78.78c.61.29,1.35.64,2.09,1,.33,3,3.27,5.27,6.77,5.17a6.51,6.51,0,0,0,6.32-4.64l.08-.05c1.28-.72,5.65-1.46,7.72,1a6.4,6.4,0,0,1,.53.73A8.11,8.11,0,0,1,169.58,168.66Z"/><path class="cls-12" d="M163.07,156.05a6.54,6.54,0,0,1-6.33,4.64c-3.5.1-6.44-2.18-6.77-5.17.55.27,1.1.56,1.6.83C152.79,157,157,159.43,163.07,156.05Z"/></g></g></svg>