<svg xmlns="http://www.w3.org/2000/svg" viewBox="0 0 224.67 200.33"><defs><style>.cls-1{fill:#f0dfed;stroke:#dd3d96;}.cls-1,.cls-2,.cls-3,.cls-4,.cls-5,.cls-8{stroke-miterlimit:10;}.cls-2{fill:#74cfeb;stroke:#50a7dd;}.cls-3,.cls-6{fill:#231f20;}.cls-3,.cls-4,.cls-5{stroke:#ed258b;}.cls-4,.cls-8{fill:none;}.cls-5{fill:#5c5d60;}.cls-6{font-size:14px;font-family:Monaco;}.cls-7{fill:#eacfb8;stroke-linejoin:round;}.cls-7,.cls-8{stroke:#478682;stroke-linecap:round;}</style></defs><g id="Layer_2" data-name="Layer 2"><g id="refried_beans" data-name="refried beans"><rect class="cls-1" x="0.5" y="0.5" width="223.67" height="199.33" rx="14.72"/><rect class="cls-2" x="87.18" y="26.01" width="110.76" height="48.1" rx="9.88"/><path class="cls-3" d="M55.62,61c-8.93,1.17-28.74.34-36.42-23.77a13.3,13.3,0,0,1-.38-7.26c1.44-5.72,5.58-14.08,15-8.87a12.44,12.44,0,0,1,4.36,4.08c.58.88,1.26,1.94,1.94,3-2,4.23.06,9.61,4.77,12.29,4.22,2.4,9.2,1.86,12.08-1h.14c2.27.07,8.63,2.61,9.4,7.49a9.46,9.46,0,0,1,.12,1.39A12.56,12.56,0,0,1,55.62,61Z"/><path class="cls-4" d="M57,39.4c-2.88,2.9-7.86,3.44-12.08,1-4.71-2.68-6.74-8.06-4.77-12.29.5.81,1,1.64,1.44,2.4C42.61,32.4,46.27,39,57,39.4Z"/><path class="cls-5" d="M57,39.4c-2.88,2.9-7.86,3.44-12.08,1-4.71-2.68-6.74-8.06-4.77-12.29.5.81,1,1.64,1.44,2.4C42.61,32.4,46.27,39,57,39.4Z"/><path class="cls-3" d="M52.42,102.91c-8.92,1.17-28.74.35-36.42-23.77a13.26,13.26,0,0,1-.37-7.25c1.43-5.72,5.58-14.08,15-8.87A12.47,12.47,0,0,1,35,67.1c.57.87,1.26,1.93,1.93,3-2,4.22.07,9.6,4.78,12.28,4.21,2.4,9.19,1.87,12.08-1h.13c2.27.08,8.64,2.61,9.41,7.49a10.65,10.65,0,0,1,.11,1.39A12.55,12.55,0,0,1,52.42,102.91Z"/><path class="cls-4" d="M53.76,81.37c-2.89,2.9-7.87,3.43-12.08,1C37,79.72,34.93,74.34,36.9,70.12c.5.81,1,1.63,1.45,2.39C39.42,74.36,43.07,81,53.76,81.37Z"/><path class="cls-5" d="M53.76,81.37c-2.89,2.9-7.87,3.43-12.08,1C37,79.72,34.93,74.34,36.9,70.12c.5.81,1,1.63,1.45,2.39C39.42,74.36,43.07,81,53.76,81.37Z"/><text class="cls-6" transform="translate(105.59 48.01)">breakfast<tspan x="8.4" y="16.8">burrito</tspan></text><rect class="cls-2" x="15.28" y="120.79" width="110.76" height="48.1" rx="9.88"/><text class="cls-6" transform="translate(50.5 142.78)">pasta <tspan x="0" y="16.8">salad</tspan></text><path class="cls-7" d="M191.43,128s-7.4,7.79-9.51,10a43.41,43.41,0,0,0-4,4.7,14.51,14.51,0,0,0-2.41,6.15c-1.06,8-1.46,21.78,6.87,25a2.48,2.48,0,0,0,.73.23c2.31.43,4,1.13,8.31-1.34,3.8.47,10.48,4.27,17.36-5.71,2.12-3.32,9.72-21.14-6.2-31.84-2.87-2.12-6.61-4.43-9-5.82Z"/><path class="cls-8" d="M202.3,142.56s8.76,12.85,0,20.84"/><path class="cls-8" d="M191.83,130s-8.24,36.13-1.52,41"/><path class="cls-7" d="M150,97.56s-7.4,7.79-9.51,10a43.41,43.41,0,0,0-4,4.7,14.52,14.52,0,0,0-2.41,6.14c-1.06,8-1.46,21.78,6.87,25a3.34,3.34,0,0,0,.73.23c2.31.43,4,1.13,8.31-1.35,3.8.48,10.48,4.28,17.36-5.7,2.12-3.33,9.72-21.15-6.2-31.84-2.87-2.12-6.61-4.43-9-5.83C150.84,98.06,150,97.56,150,97.56Z"/><path class="cls-8" d="M160.83,112.17s8.76,12.85,0,20.84"/><path class="cls-8" d="M150.36,99.58s-8.24,36.13-1.52,41"/></g></g></svg>