<svg xmlns="http://www.w3.org/2000/svg" viewBox="0 0 224.67 200.33"><defs><style>.cls-1{fill:#f0dfed;stroke:#dd3d96;}.cls-1,.cls-2,.cls-5,.cls-6,.cls-7{stroke-miterlimit:10;}.cls-2{fill:#74cfeb;stroke:#50a7dd;}.cls-3{font-size:14px;fill:#231f20;font-family:Monaco;}.cls-4{fill:#d3bf97;}.cls-5{fill:none;stroke-linecap:round;}.cls-5,.cls-6,.cls-7{stroke:#a56faf;}.cls-5,.cls-6{stroke-width:0.5px;}.cls-6{fill:#ecd5a7;}.cls-7{fill:#ddc0dc;stroke-width:0.25px;}</style></defs><g id="Layer_2" data-name="Layer 2"><g id="refried_beans" data-name="refried beans"><rect class="cls-1" x="0.5" y="0.5" width="223.67" height="199.33" rx="14.72"/><rect class="cls-2" x="56.96" y="63.76" width="110.76" height="48.1" rx="9.88"/><text class="cls-3" transform="translate(79.57 91.75)">burritos</text><path class="cls-4" d="M152.17,163.35c-7.13,4.11-25,12.12-46.44,7.61a9,9,0,0,1-4.73-2.17c-2.22-2.43-3.66-6.84,7.76-9.1a28.1,28.1,0,0,1,6.31-.52l3.54.16c.83,2.18,5.89,3,11.66,1.94,5.16-1,9.2-3.24,10-5.37l.13-.06c2-.92,9.17-2.77,12.81-1.53a7.57,7.57,0,0,1,.94.4C158.14,156.69,157.23,160.43,152.17,163.35Z"/><path class="cls-5" d="M142.67,159.6c2.08-1.92,3-2.08,3.48-1.82,1,.57-.09,3.33,1.2,4.47,1,.87,2.88.36,4.43-.26"/><path class="cls-6" d="M131,143.6c-3.68,4.51-13.38,12.91-27.69,5a8.55,8.55,0,0,1-3.4-3.24C98,142,96.26,136.23,103,134.51a8.13,8.13,0,0,1,3.86,0l2.25.57c1,2.86,4.29,4.49,7.7,3.66a6.52,6.52,0,0,0,5.23-5.85l.07-.05c1.1-1,5.22-2.6,7.75-.65a8.93,8.93,0,0,1,.67.6A8.12,8.12,0,0,1,131,143.6Z"/><path class="cls-7" d="M122,132.6a6.51,6.51,0,0,1-5.22,5.84c-3.41.83-6.76-.8-7.7-3.66.59.16,1.19.32,1.74.49C112.13,135.66,116.78,137.15,122,132.6Z"/><path class="cls-6" d="M152,154.92c-4.54,3.65-15.76,9.87-28.13-.85a8.67,8.67,0,0,1-2.65-3.88c-1.14-3.64-1.66-9.65,5.28-9.94a8.12,8.12,0,0,1,3.79.78l2.08,1c.34,3,3.27,5.27,6.78,5.17a6.51,6.51,0,0,0,6.32-4.64l.08,0c1.28-.73,5.65-1.47,7.72,1a8.39,8.39,0,0,1,.53.73A8.13,8.13,0,0,1,152,154.92Z"/><path class="cls-7" d="M145.45,142.3a6.5,6.5,0,0,1-6.32,4.64c-3.5.1-6.44-2.18-6.78-5.17.55.27,1.11.56,1.61.83C135.17,143.26,139.42,145.68,145.45,142.3Z"/><path class="cls-5" d="M135.18,163.44c2.09-1.91,3-2.07,3.48-1.81,1,.57-.09,3.32,1.2,4.47,1,.87,2.89.36,4.44-.26"/><path class="cls-5" d="M101.49,166.29c2.09-1.91,3-2.07,3.48-1.81,1,.57-.09,3.32,1.2,4.47,1,.87,2.89.36,4.43-.26"/><path class="cls-5" d="M109.33,166.6c2.09-1.92,3-2.07,3.48-1.82,1,.58-.09,3.33,1.2,4.48,1,.87,2.89.36,4.44-.26"/><path class="cls-5" d="M118.79,167.31c2.09-1.91,3-2.07,3.48-1.81,1,.57-.09,3.32,1.2,4.47,1,.87,2.89.36,4.44-.26"/><path class="cls-5" d="M126.65,164.82c2.08-1.91,3-2.07,3.48-1.81,1,.57-.09,3.32,1.2,4.47,1,.87,2.88.36,4.43-.26"/><path class="cls-6" d="M133.18,162.11c-4.54,3.65-15.76,9.87-28.13-.86a8.64,8.64,0,0,1-2.65-3.87c-1.13-3.64-1.66-9.65,5.28-9.94a8.12,8.12,0,0,1,3.79.78c.61.29,1.35.64,2.09,1,.33,3,3.27,5.27,6.77,5.17a6.51,6.51,0,0,0,6.32-4.64l.08,0c1.28-.73,5.65-1.47,7.72,1a6.4,6.4,0,0,1,.53.73A8.12,8.12,0,0,1,133.18,162.11Z"/><path class="cls-7" d="M126.66,149.49a6.51,6.51,0,0,1-6.32,4.64c-3.5.1-6.44-2.18-6.77-5.17.55.27,1.1.56,1.6.83C116.38,150.45,120.63,152.87,126.66,149.49Z"/></g></g></svg>