<svg xmlns="http://www.w3.org/2000/svg" viewBox="0 0 224.67 200.33"><defs><style>.cls-1{fill:#f0dfed;stroke:#dd3d96;}.cls-1,.cls-10,.cls-2,.cls-3,.cls-4,.cls-5,.cls-8,.cls-9{stroke-miterlimit:10;}.cls-2{fill:#74cfeb;stroke:#50a7dd;}.cls-3,.cls-6{fill:#231f20;}.cls-3,.cls-4,.cls-5{stroke:#ed258b;}.cls-4,.cls-8{fill:none;}.cls-5{fill:#5c5d60;}.cls-6{font-size:14px;font-family:Monaco;}.cls-7{fill:#eacfb8;stroke-linejoin:round;}.cls-7,.cls-8{stroke:#478682;stroke-linecap:round;}.cls-9{fill:#f1eedb;}.cls-10,.cls-9{stroke:#ffcc71;}.cls-10{fill:#e0d9a1;}</style></defs><g id="Layer_2" data-name="Layer 2"><g id="refried_beans" data-name="refried beans"><rect class="cls-1" x="0.5" y="0.5" width="223.67" height="199.33" rx="14.72"/><rect class="cls-2" x="93.36" y="24.32" width="110.76" height="48.1" rx="9.88"/><path class="cls-3" d="M66,65.85C57.07,67,37.26,66.2,29.58,42.08a13.27,13.27,0,0,1-.38-7.25c1.44-5.72,5.58-14.08,15-8.87A12.51,12.51,0,0,1,48.54,30c.58.88,1.26,1.94,1.94,3-2,4.22.06,9.6,4.77,12.28,4.22,2.4,9.2,1.87,12.08-1h.14c2.27.08,8.64,2.61,9.4,7.49A9.46,9.46,0,0,1,77,53.19,12.55,12.55,0,0,1,66,65.85Z"/><path class="cls-4" d="M67.33,44.31c-2.88,2.9-7.86,3.43-12.08,1-4.71-2.68-6.74-8.06-4.77-12.28.5.81,1,1.63,1.44,2.39C53,37.3,56.65,43.91,67.33,44.31Z"/><path class="cls-5" d="M67.33,44.31c-2.88,2.9-7.86,3.43-12.08,1-4.71-2.68-6.74-8.06-4.77-12.28.5.81,1,1.63,1.44,2.39C53,37.3,56.65,43.91,67.33,44.31Z"/><text class="cls-6" transform="translate(128.57 46.31)">vegan <tspan x="-8.4" y="16.8">fajitas </tspan></text><rect class="cls-2" x="14.32" y="109.13" width="110.76" height="48.1" rx="9.88"/><text class="cls-6" transform="translate(48.7 138.5)">pasta </text><path class="cls-7" d="M188.75,141.61s-7.39,7.79-9.51,10a43.58,43.58,0,0,0-4,4.7,14.65,14.65,0,0,0-2.41,6.14c-1.06,8-1.45,21.78,6.87,25a3.22,3.22,0,0,0,.74.23c2.3.43,4,1.13,8.3-1.35,3.8.48,10.49,4.28,17.36-5.7,2.12-3.33,9.73-21.15-6.19-31.84-2.88-2.12-6.62-4.43-9-5.83C189.63,142.11,188.75,141.61,188.75,141.61Z"/><path class="cls-8" d="M199.63,156.22s8.76,12.85,0,20.84"/><path class="cls-8" d="M189.15,143.63s-8.24,36.13-1.52,41"/><path class="cls-9" d="M167.35,134.11c-8.93,1.17-28.74.35-36.43-23.77a13.26,13.26,0,0,1-.37-7.25c1.43-5.72,5.58-14.08,15-8.87a12.47,12.47,0,0,1,4.37,4.08c.57.87,1.26,1.93,1.93,3-2,4.22.07,9.6,4.78,12.28,4.21,2.4,9.19,1.87,12.08-1h.13c2.27.08,8.64,2.61,9.41,7.49a10.65,10.65,0,0,1,.11,1.39A12.55,12.55,0,0,1,167.35,134.11Z"/><path class="cls-4" d="M168.68,112.57c-2.89,2.9-7.87,3.43-12.08,1-4.71-2.68-6.75-8.06-4.78-12.28.5.81,1,1.63,1.45,2.39C154.34,105.56,158,112.17,168.68,112.57Z"/><path class="cls-10" d="M168.68,112.57c-2.89,2.9-7.87,3.43-12.08,1-4.71-2.68-6.75-8.06-4.78-12.28.5.81,1,1.63,1.45,2.39C154.34,105.56,158,112.17,168.68,112.57Z"/></g></g></svg>