<svg xmlns="http://www.w3.org/2000/svg" viewBox="0 0 224.67 200.33"><defs><style>.cls-1{fill:#f0dfed;stroke:#dd3d96;}.cls-1,.cls-2,.cls-3,.cls-4,.cls-5,.cls-7,.cls-8{stroke-miterlimit:10;}.cls-2{fill:#74cfeb;stroke:#50a7dd;}.cls-3,.cls-6{fill:#231f20;}.cls-3,.cls-4,.cls-5{stroke:#ed258b;}.cls-4{fill:none;}.cls-5{fill:#5c5d60;}.cls-6{font-size:14px;font-family:Monaco;}.cls-7{fill:#ecd5a7;}.cls-7,.cls-8{stroke:#a56faf;}.cls-8{fill:#ddc0dc;}</style></defs><g id="Layer_2" data-name="Layer 2"><g id="refried_beans" data-name="refried beans"><rect class="cls-1" x="0.5" y="0.5" width="223.67" height="199.33" rx="14.72"/><rect class="cls-2" x="93.36" y="70.32" width="110.76" height="48.1" rx="9.88"/><path class="cls-3" d="M60.4,99.2c-8.93,1.17-28.74.35-36.43-23.77a13.35,13.35,0,0,1-.37-7.25c1.43-5.72,5.58-14.08,15-8.87a12.53,12.53,0,0,1,4.36,4.08c.57.87,1.26,1.93,1.93,3-2,4.22.07,9.6,4.78,12.29,4.21,2.4,9.19,1.86,12.08-1h.13c2.27.07,8.64,2.61,9.41,7.48a10.71,10.71,0,0,1,.11,1.4A12.55,12.55,0,0,1,60.4,99.2Z"/><path class="cls-4" d="M61.73,77.66c-2.89,2.9-7.87,3.44-12.08,1C44.94,76,42.9,70.63,44.87,66.41c.51.81,1,1.63,1.45,2.4C47.39,70.65,51,77.26,61.73,77.66Z"/><path class="cls-5" d="M61.73,77.66c-2.89,2.9-7.87,3.44-12.08,1C44.94,76,42.9,70.63,44.87,66.41c.51.81,1,1.63,1.45,2.4C47.39,70.65,51,77.26,61.73,77.66Z"/><text class="cls-6" transform="translate(124.37 98.31)">chilli</text><path class="cls-7" d="M142.31,175.7c-8.93,1.17-28.74.35-36.42-23.77a13.27,13.27,0,0,1-.38-7.25c1.43-5.72,5.58-14.09,15-8.87a12.59,12.59,0,0,1,4.36,4.07c.57.88,1.26,1.94,1.93,3-2,4.22.07,9.6,4.78,12.28,4.21,2.4,9.19,1.87,12.08-1h.13c2.27.07,8.64,2.61,9.41,7.49a10.65,10.65,0,0,1,.11,1.39A12.56,12.56,0,0,1,142.31,175.7Z"/><path class="cls-4" d="M143.64,154.16c-2.89,2.9-7.87,3.43-12.08,1-4.71-2.68-6.75-8.06-4.78-12.28.51.8,1,1.63,1.45,2.39C129.3,147.15,133,153.76,143.64,154.16Z"/><path class="cls-8" d="M143.64,154.16c-2.89,2.9-7.87,3.43-12.08,1-4.71-2.68-6.75-8.06-4.78-12.28.51.8,1,1.63,1.45,2.39C129.3,147.15,133,153.76,143.64,154.16Z"/></g></g></svg>