<svg xmlns="http://www.w3.org/2000/svg" viewBox="0 0 224.67 200.33"><defs><style>.cls-1{fill:#f0dfed;stroke:#dd3d96;}.cls-1,.cls-2,.cls-3,.cls-4,.cls-6,.cls-7,.cls-8{stroke-miterlimit:10;}.cls-2{fill:#74cfeb;stroke:#50a7dd;}.cls-3,.cls-5{fill:#231f20;}.cls-3,.cls-4,.cls-7{stroke:#ed258b;}.cls-4{fill:#5c5d60;}.cls-5{font-size:14px;font-family:Monaco;}.cls-6{fill:#b33025;}.cls-6,.cls-8{stroke:#4a99d4;}.cls-7{fill:none;}.cls-8{fill:#b54c25;}</style></defs><g id="Layer_2" data-name="Layer 2"><g id="refried_beans" data-name="refried beans"><rect class="cls-1" x="0.5" y="0.5" width="223.67" height="199.33" rx="14.72"/><rect class="cls-2" x="93.36" y="70.32" width="110.76" height="48.1" rx="9.88"/><path class="cls-3" d="M57.85,96.56c-8.93,1.17-28.74.35-36.42-23.77a13.27,13.27,0,0,1-.38-7.25c1.43-5.72,5.58-14.09,15-8.88a12.44,12.44,0,0,1,4.36,4.08c.57.88,1.26,1.94,1.94,3-2,4.22.06,9.6,4.77,12.28,4.22,2.4,9.2,1.86,12.08-1h.14c2.27.07,8.63,2.61,9.4,7.49a11.59,11.59,0,0,1,.12,1.39A12.57,12.57,0,0,1,57.85,96.56Z"/><path class="cls-4" d="M59.18,75c-2.88,2.9-7.86,3.44-12.08,1-4.71-2.68-6.75-8.06-4.77-12.28.5.8,1,1.63,1.44,2.39C44.84,68,48.49,74.61,59.18,75Z"/><text class="cls-5" transform="translate(111.77 98.31)">picadillo</text><path class="cls-6" d="M54.33,148.11c-8.93,1.17-28.74.35-36.43-23.77a13.27,13.27,0,0,1-.37-7.25c1.43-5.72,5.58-14.09,15-8.88a12.56,12.56,0,0,1,4.37,4.08c.57.88,1.26,1.94,1.93,3-2,4.22.07,9.6,4.78,12.28,4.21,2.4,9.19,1.86,12.08-1h.13c2.27.07,8.64,2.61,9.41,7.49a10.65,10.65,0,0,1,.11,1.39A12.56,12.56,0,0,1,54.33,148.11Z"/><path class="cls-7" d="M55.66,126.56c-2.89,2.9-7.87,3.44-12.08,1-4.71-2.68-6.75-8.06-4.78-12.28.5.8,1,1.63,1.45,2.39C41.32,119.56,45,126.16,55.66,126.56Z"/><path class="cls-8" d="M55.66,126.56c-2.89,2.9-7.87,3.44-12.08,1-4.71-2.68-6.75-8.06-4.78-12.28.5.8,1,1.63,1.45,2.39C41.32,119.56,45,126.16,55.66,126.56Z"/></g></g></svg>