<svg xmlns="http://www.w3.org/2000/svg" viewBox="0 0 224.67 200.33"><defs><style>.cls-1{fill:#f0dfed;stroke:#dd3d96;}.cls-1,.cls-2,.cls-5,.cls-6,.cls-7,.cls-8{stroke-miterlimit:10;}.cls-2{fill:#74cfeb;stroke:#50a7dd;}.cls-3{font-size:14px;fill:#231f20;font-family:Monaco;}.cls-4{fill:#eacfb8;stroke-linejoin:round;}.cls-4,.cls-5{stroke:#478682;stroke-linecap:round;}.cls-5,.cls-7{fill:none;}.cls-6{fill:#f1eedb;}.cls-6,.cls-8{stroke:#ffcc71;}.cls-7{stroke:#ed258b;}.cls-8{fill:#e0d9a1;}</style></defs><g id="Layer_2" data-name="Layer 2"><g id="refried_beans" data-name="refried beans"><rect class="cls-1" x="0.5" y="0.5" width="223.67" height="199.33" rx="14.72"/><rect class="cls-2" x="93.36" y="24.32" width="110.76" height="48.1" rx="9.88"/><text class="cls-3" transform="translate(128.57 51.67)">tacos </text><rect class="cls-2" x="14.32" y="117.42" width="110.76" height="48.1" rx="9.88"/><text class="cls-3" transform="translate(48.69 146.79)">pasta </text><path class="cls-4" d="M30.79,18.11s-7.39,7.79-9.51,10a42.28,42.28,0,0,0-4,4.69,14.52,14.52,0,0,0-2.42,6.15c-1.06,8-1.45,21.78,6.87,25a2.92,2.92,0,0,0,.74.24c2.3.43,4,1.13,8.3-1.35,3.8.48,10.49,4.28,17.36-5.7,2.12-3.33,9.73-21.15-6.19-31.84-2.88-2.12-6.62-4.43-9-5.83C31.67,18.61,30.79,18.11,30.79,18.11Z"/><path class="cls-5" d="M41.67,32.72s8.76,12.84,0,20.83"/><path class="cls-5" d="M31.2,20.13s-8.25,36.13-1.53,41"/><path class="cls-4" d="M60.12,53.52s-7.39,7.79-9.5,10a41.3,41.3,0,0,0-4,4.69,14.52,14.52,0,0,0-2.42,6.15c-1.06,8-1.45,21.78,6.87,25a2.92,2.92,0,0,0,.74.24c2.3.43,4,1.13,8.3-1.35,3.8.48,10.49,4.28,17.36-5.7,2.12-3.33,9.73-21.15-6.19-31.84-2.88-2.12-6.62-4.43-9-5.83C61,54,60.12,53.52,60.12,53.52Z"/><path class="cls-5" d="M71,68.13S79.76,81,71,89"/><path class="cls-5" d="M60.53,55.54s-8.24,36.13-1.53,41"/><path class="cls-6" d="M181.06,160.16c-8.93,1.17-28.74.35-36.42-23.77a13.27,13.27,0,0,1-.38-7.25c1.44-5.72,5.58-14.09,15-8.87a12.41,12.41,0,0,1,4.36,4.07c.58.88,1.26,1.94,1.94,3-2,4.22.06,9.6,4.77,12.28,4.22,2.4,9.2,1.86,12.08-1h.14c2.27.07,8.64,2.61,9.4,7.49a9.46,9.46,0,0,1,.12,1.39A12.56,12.56,0,0,1,181.06,160.16Z"/><path class="cls-7" d="M182.39,138.62c-2.88,2.89-7.86,3.43-12.08,1-4.71-2.68-6.74-8.06-4.77-12.28.5.8,1,1.63,1.44,2.39C168.05,131.61,171.71,138.22,182.39,138.62Z"/><path class="cls-8" d="M182.39,138.62c-2.88,2.89-7.86,3.43-12.08,1-4.71-2.68-6.74-8.06-4.77-12.28.5.8,1,1.63,1.44,2.39C168.05,131.61,171.71,138.22,182.39,138.62Z"/></g></g></svg>